<?xml version="1.0" encoding="UTF-8"?>
<svg width="64" height="64" viewBox="0 0 64 64" fill="none" xmlns="http://www.w3.org/2000/svg">
  <rect width="64" height="64" rx="16" fill="#0F172A"/>
  <path d="M16 19C16 17.8954 16.8954 17 18 17H32.5C35.5376 17 38 19.4624 38 22.5C38 25.5376 35.5376 28 32.5 28H22V36H36C37.1046 36 38 36.8954 38 38C38 39.1046 37.1046 40 36 40H22C20.8954 40 20 39.1046 20 38V22.5H18C16.8954 22.5 16 21.6046 16 20.5V19Z" fill="#F1812F"/>
  <path d="M46 24C49.3137 24 52 26.6863 52 30C52 32.3734 50.8721 34.4885 49.0853 35.7951C49.6621 36.3969 50 37.1857 50 38C50 40.2091 48.2091 42 46 42H39.5C38.3954 42 37.5 41.1046 37.5 40C37.5 38.8954 38.3954 38 39.5 38H46C46.8284 38 47.5 37.3284 47.5 36.5C47.5 35.6716 46.8284 35 46 35H42.5C41.3954 35 40.5 34.1046 40.5 33C40.5 31.8954 41.3954 31 42.5 31H46C47.3807 31 48.5 29.8807 48.5 28.5C48.5 27.1193 47.3807 26 46 26H39.5C38.3954 26 37.5 25.1046 37.5 24C37.5 22.8954 38.3954 22 39.5 22H46Z" fill="white"/>
</svg>
